<?xml version="1.0" encoding="UTF-8"?>
<svg width="16px" height="16px" viewBox="0 0 16 16" version="1.1" xmlns="http://www.w3.org/2000/svg" xmlns:xlink="http://www.w3.org/1999/xlink">
    <!-- Generator: Sketch 54.1 (76490) - https://sketchapp.com -->
    <title>Library / Icons / 16px / Tools</title>
    <desc>Created with Sketch.</desc>
    <defs>
        <path d="M12.3566676,4.20647377 L10.0091629,6.55397844 L9.30387341,5.84868895 L11.6513781,3.50118429 L11.0065929,2.85639907 L13.8277508,0.0352411133 L15.9436193,2.15110958 L13.1224613,4.97226754 L12.3566676,4.20647377 Z M15.240271,11.7138236 C16.0482747,12.5218273 16.2133463,13.7246946 15.7279322,14.669998 L14.8958874,13.8379532 C14.603747,13.5458127 14.1300937,13.5458127 13.8379532,13.8379532 C13.5458127,14.1300937 13.5458127,14.603747 13.8379532,14.8958874 L14.669998,15.7279322 C13.7246946,16.2133463 12.5218273,16.0482747 11.7138236,15.240271 C11.1234472,14.6498947 10.8763096,13.8487146 10.9753572,13.0912257 L2.90877432,5.02464279 C2.15128541,5.12369037 1.35010533,4.87655277 0.759728986,4.28617643 C-0.0482747333,3.47817271 -0.213346317,2.27530536 0.272067758,1.33000199 L1.10411255,2.16204679 C1.39625302,2.45418726 1.86990631,2.45418726 2.16204679,2.16204679 C2.45418726,1.86990631 2.45418726,1.39625302 2.16204679,1.10411255 L1.33000199,0.272067758 C2.27530536,-0.213346317 3.47817271,-0.0482747333 4.28617643,0.759728986 C4.87655277,1.35010533 5.12369037,2.15128541 5.02464279,2.90877432 L13.0912257,10.9753572 C13.8487146,10.8763096 14.6498947,11.1234472 15.240271,11.7138236 Z M14.5349815,12.4191131 C14.1804484,12.06458 13.6948432,11.9023502 13.2205466,11.9643681 L12.733361,12.0280715 L3.97192854,3.26663905 L4.03563185,2.77945343 C4.09764983,2.30515682 3.93542004,1.81955157 3.58088694,1.46501847 C3.50581222,1.38994375 3.42498873,1.32371136 3.33985863,1.26646037 C3.45947599,1.82588847 3.30196854,2.43270401 2.86733628,2.86733628 C2.43270401,3.30196854 1.82588847,3.45947599 1.26646037,3.33985863 C1.32371136,3.42498873 1.38994375,3.50581222 1.46501847,3.58088694 C1.81955157,3.93542004 2.30515682,4.09764983 2.77945343,4.03563185 L3.26663905,3.97192854 L12.0280715,12.733361 L11.9643681,13.2205466 C11.9023502,13.6948432 12.06458,14.1804484 12.4191131,14.5349815 C12.4941878,14.6100562 12.5750113,14.6762886 12.6601414,14.7335396 C12.540524,14.1741115 12.6980315,13.567296 13.1326637,13.1326637 C13.567296,12.6980315 14.1741115,12.540524 14.7335396,12.6601414 C14.6762886,12.5750113 14.6100562,12.4941878 14.5349815,12.4191131 Z M12.4171718,2.85639907 L13.1224613,3.56168856 L14.5330403,2.15110958 L13.8277508,1.44582009 L12.4171718,2.85639907 Z M4.97188971,8.77272757 L7.08775818,10.888596 L2.15073176,15.8256225 L0.0348632892,13.709754 L4.97188971,8.77272757 Z M4.97188971,10.1833065 L1.44544227,13.709754 L2.15073176,14.4150435 L5.6771792,10.888596 L4.97188971,10.1833065 Z" id="path-1"></path>
    </defs>
    <g id="Library-/-Icons-/-16px-/-Tools" stroke="none" stroke-width="1" fill="none" fill-rule="evenodd">
        <mask id="mask-2" fill="white">
            <use xlink:href="#path-1"></use>
        </mask>
        <use id="Combined-Shape" fill="#484848" fill-rule="nonzero" xlink:href="#path-1"></use>
    </g>
</svg>