<svg id="Layer_1" width="16px" height="16px" data-name="Layer 1" xmlns="http://www.w3.org/2000/svg" viewBox="0 0 16 16"><defs><style>.cls-1{fill:#484848;}</style></defs><title>trash-16</title><path class="cls-1" d="M10.5,2h-5V1h5Zm1,0V0h-7V2h-3V3h13V2Zm-2,4.4a.512.512,0,0,1,1,0v7.2a.512.512,0,0,1-1,0Zm-2,0A.46.46,0,0,1,8,6a.46.46,0,0,1,.5.4v7.2A.46.46,0,0,1,8,14a.46.46,0,0,1-.5-.4Zm-2,0A.46.46,0,0,1,6,6a.46.46,0,0,1,.5.4v7.2A.46.46,0,0,1,6,14a.46.46,0,0,1-.5-.4ZM11.58,15H4.42L3.587,5h8.826ZM2.5,4l1,12h9l1-12Z"/></svg>