<svg xmlns="http://www.w3.org/2000/svg" xmlns:xlink="http://www.w3.org/1999/xlink" width="16" height="16" viewBox="0 0 16 16">
    <defs>
        <path id="a" d="M26 11.143v13.714c0 .631-.512 1.143-1.143 1.143H13.43c-.304 0-.595-.12-.808-.335l-2.286-2.286a1.131 1.131 0 0 1-.335-.808V11.143c0-.631.512-1.143 1.143-1.143h13.714c.631 0 1.143.512 1.143 1.143zm-11.429 0v3.428h6.858v-3.428H14.57zm6.858 13.714v-4.571H14.57v4.571h1.143v-2.286h1.143v2.286h4.572zm3.428-13.714h-2.286v4.571H13.43v-4.571h-2.286V22.57l2.286 2.286v-4.571c0-.631.511-1.143 1.142-1.143h6.858c.63 0 1.142.512 1.142 1.143v4.571h2.286V11.143z"/>
    </defs>
    <use fill="#484848" fill-rule="nonzero" transform="translate(-10 -10)" xlink:href="#a"/>
</svg>
