<svg id="Layer_1" data-name="Layer 1" xmlns="http://www.w3.org/2000/svg" viewBox="0 0 16 16"><defs><style>.cls-1{fill:#fff;}</style></defs><title>help-16</title><path class="cls-1" d="M8.53333,9.6H7.46667A3.24906,3.24906,0,0,1,8.83411,6.92268c.50134-.4928.78509-.79575.78082-1.29816A1.41224,1.41224,0,0,0,8.05762,4.26988,1.51259,1.51259,0,0,0,6.40637,5.75679H5.33972c0-3.296,5.343-3.36426,5.34186-.13651a2.79136,2.79136,0,0,1-1.10077,2.064C9.02612,8.22932,8.53333,8.528,8.53333,9.6ZM8,11.2a1.06667,1.06667,0,1,1-1.06667,1.06667A1.06667,1.06667,0,0,1,8,11.2Zm.00107,3.84A7.04,7.04,0,1,1,15.04,8,7.04,7.04,0,0,1,8.00107,15.04ZM8,0a8,8,0,1,0,8,8A8,8,0,0,0,8,0Z"/></svg>