<?xml version="1.0" encoding="UTF-8"?>
<svg width="16px" height="16px" viewBox="0 0 16 16" version="1.1" xmlns="http://www.w3.org/2000/svg" xmlns:xlink="http://www.w3.org/1999/xlink">
    <!-- Generator: Sketch 55 (78076) - https://sketchapp.com -->
    <title>Library / Icons / 16px / Run all 2</title>
    <desc>Created with Sketch.</desc>
    <defs>
        <path d="M15.8525015,8.29416711 L6.5148469,14.9405809 C6.36267163,15.0488971 6.15706758,15.0049933 6.0556174,14.8425189 C6.01935205,14.7844393 6,14.716198 6,14.646395 L6,1.35356745 C6,1.15829754 6.14826319,1 6.3311551,1 C6.39653339,1 6.46044887,1.02066178 6.5148469,1.05938155 L15.8525015,7.70579531 C16.0046768,7.81411157 16.0457976,8.03363076 15.9443474,8.19610515 C15.9200953,8.23494534 15.8888797,8.26827365 15.8525015,8.29416711 Z M7,2.63215932 L7,13.3678031 L14.5413401,7.99998121 L7,2.63215932 Z M5,13.8834694 L3.5148469,14.9405809 C3.36267163,15.0488971 3.15706758,15.0049933 3.0556174,14.8425189 C3.01935205,14.7844393 3,14.716198 3,14.646395 L3,1.35356745 C3,1.15829754 3.14826319,1 3.3311551,1 C3.39653339,1 3.46044887,1.02066178 3.5148469,1.05938155 L5,2.11649304 L5,3.34394553 L4,2.63215932 L4,13.3678031 L5,12.6560169 L5,13.8834694 Z M2,13.8834694 L0.514846897,14.9405809 C0.362671628,15.0488971 0.15706758,15.0049933 0.0556174013,14.8425189 C0.0193520507,14.7844393 3.55271368e-15,14.716198 3.55271368e-15,14.646395 L-8.8817842e-16,1.35356745 C-8.8817842e-16,1.15829754 0.148263188,1 0.331155098,1 C0.396533389,1 0.460448871,1.02066178 0.514846897,1.05938155 L2,2.11649304 L2,3.34394553 L1,2.63215932 L1,13.3678031 L2,12.6560169 L2,13.8834694 Z" id="path-1"></path>
    </defs>
    <g id="Library-/-Icons-/-16px-/-Run-all-2" stroke="none" stroke-width="1" fill="none" fill-rule="evenodd">
        <mask id="mask-2" fill="white">
            <use xlink:href="#path-1"></use>
        </mask>
        <path stroke="#484848" d="M15.4035741,7.99998121 L6.5,1.66253998 L6.5,14.3374224 L15.4035741,7.99998121 Z M6.5,14.3374224 L6.5,1.66253998 L15.4035741,7.99998121 L6.5,14.3374224 Z M3.5,14.3374224 L3.22490239,14.5332331 C3.30989814,14.4727343 3.43023263,14.4984301 3.47972951,14.5777003 C3.49331353,14.5994553 3.5,14.6230339 3.5,14.646395 L3.5,14.3374224 Z M3.5,2.14734965 L3.5,1.35356745 C3.5,1.42738665 3.43198956,1.5 3.3311551,1.5 C3.29201009,1.5 3.25470013,1.48793891 3.22490239,1.46672929 L3.89497225,1.94367578 L3.5,1.66253998 L3.5,2.14734965 Z M3.89497225,1.94367578 L4.5,2.37432618 L3.89497225,1.94367578 Z M4.5,2.37432618 L4.71005549,2.52384079 L4.5,2.11649304 L4.5,3.34394553 L5.28994451,2.93659779 L4.5,2.37432618 Z M4.5,13.6256362 L5.28994451,13.0633646 L4.5,12.6560169 L4.5,13.8834694 L4.71005549,13.4761216 L4.5,13.6256362 Z M0.894972253,14.0562866 L0.224902391,14.5332331 C0.309898139,14.4727343 0.430232628,14.4984301 0.479729507,14.5777003 C0.493313529,14.5994553 0.5,14.6230339 0.5,14.646395 L0.5,13.8526128 L0.5,14.3374224 L0.894972253,14.0562866 Z M0.5,2.14734965 L0.5,1.35356745 C0.5,1.42738665 0.431989555,1.5 0.331155098,1.5 C0.292010085,1.5 0.254700132,1.48793891 0.224902391,1.46672929 L0.894972253,1.94367578 L0.5,1.66253998 L0.5,2.14734965 Z M1.5,2.37432618 L1.71005549,2.52384079 L1.5,2.11649304 L1.5,3.34394553 L2.28994451,2.93659779 L1.5,2.37432618 Z M1.5,13.6256362 L2.28994451,13.0633646 L1.5,12.6560169 L1.5,13.8834694 L1.71005549,13.4761216 L1.5,13.6256362 Z"></path>
        <g id="Library-/-Tints-/-White---#FFFFFF" mask="url(#mask-2)" fill="#484848">
            <rect id="Tint---#FFFFFF" x="0" y="0" width="16" height="16"></rect>
        </g>
    </g>
</svg>