<?xml version="1.0" encoding="UTF-8"?>
<svg width="16px" height="14px" viewBox="0 0 16 14" version="1.1" xmlns="http://www.w3.org/2000/svg" xmlns:xlink="http://www.w3.org/1999/xlink">
    <!-- Generator: Sketch 56.3 (81716) - https://sketch.com -->
    <title>Library / Buttons / Icons / 48px - with 16px  - square Copy</title>
    <desc>Created with Sketch.</desc>
    <defs>
        <path d="M0,2 L0,0 L16,0 L16,2 L16,14 L0,14 L0,2 Z M3,10.4549702 L5.75934888,7.96963405 L3.00527937,5.55281599 L3.62384514,5 L7,7.96340514 L3.62736472,11 L3,10.4549702 Z M1,3 L1,13 L15,13 L15,3 L1,3 Z M9,10 L13,10 L13,11 L9,11 L9,10 Z" id="path-1"></path>
    </defs>
    <g id="Page-1" stroke="none" stroke-width="1" fill="none" fill-rule="evenodd">
        <g id="Redesign-of-workbook-UI" transform="translate(-2352.000000, -562.000000)">
            <g id="Library-/-Buttons-/-Icons-/-48px---with-16px----square-Copy" transform="translate(2352.000000, 561.000000)">
                <g id="Library-/-Icons-/-16px-/-Maps-2" transform="translate(0.000000, 1.000000)">
                    <mask id="mask-2" fill="white">
                        <use xlink:href="#path-1"></use>
                    </mask>
                    <use id="Combined-Shape" fill="#FFFFFF" fill-rule="nonzero" xlink:href="#path-1"></use>
                    <g id="Library-/-Tints-/-Dark-grey---#484848" mask="url(#mask-2)" fill="#484848">
                        <g transform="translate(0.000000, -1.000000)" id="Tint---#484848">
                            <rect x="0" y="0" width="16" height="16"></rect>
                        </g>
                    </g>
                </g>
            </g>
        </g>
    </g>
</svg>