<svg id="Layer_1" width="16px" height="16px" data-name="Layer 1" xmlns="http://www.w3.org/2000/svg" viewBox="0 0 16 16"><defs><style>.cls-1{fill:#484848;}</style></defs><title>switch-16</title><path class="cls-1" d="M1.04,7.66V6.75A2.24279,2.24279,0,0,1,3.29,4.52H14.01L11.28,7.33,11.23,7.38l.7.68,4.05-4.13L11.97,0l-.65991.72,2.78,2.78H3.29A3.27787,3.27787,0,0,0,0,6.75l.06006.91Z"/><path class="cls-1" d="M15.97,8.68H14.96v.54a2.24076,2.24076,0,0,1-2.25,2.22H1.99L4.77,8.59l-.74-.65L.02,12.04,3.99,16l.69995-.76L1.91,12.47H12.71A3.27787,3.27787,0,0,0,16,9.22Z"/></svg>